<?xml version="1.0" encoding="UTF-8"?>
<svg id="logo-dark" xmlns="http://www.w3.org/2000/svg" viewBox="0 0 102.06 44.48">
  <defs>
    <style>
      .cls-1 {
        fill: #fff;
        stroke-width: 0px;
      }
    </style>
  </defs>
  <path class="cls-1" d="M51.41,10.45c.02.56-.43,1.24-1,1.26-.57.02-1.06-.63-1.08-1.19-.02-.56.43-1.02,1.01-1.04.57-.02,1.05.42,1.07.97"/>
  <path class="cls-1" d="M25.85,31.18c.1-.31.21-.62.35-.92.13-.3.23-.45.28-.45,0,0,0,0,.02.01.03.04.04.1.03.18,0,.08-.03.18-.07.3-.04.12-.08.24-.13.37-.05.13-.11.25-.17.38-.06.12-.12.23-.17.33-.05.1-.1.17-.14.23-.04.06-.07.08-.08.07-.03-.02,0-.19.09-.5M23.03,31.28c0-.05.02-.09.03-.1.03-.03.07-.03.11,0,.02.02,0,.08-.03.19-.04.1-.07.16-.09.16-.01,0-.02-.02-.02-.07,0-.05,0-.1,0-.16M23.1,30.85c.04-.3.1-.57.19-.81.08-.24.15-.4.22-.47.01-.01.03-.01.04-.01.02,0,.03.01.03.03.05.1-.05.53-.31,1.28,0,.04-.03.07-.08.07-.02,0-.04,0-.07,0-.03,0-.04-.03-.03-.1M28.93,32.23c.08-.11.18-.2.3-.27.12-.07.22-.1.31-.1.03,0,.04,0,.05.02.01,0,.02.03.02.06,0,.05-.04.1-.12.16-.02.01-.04.03-.07.04-.18.09-.33.14-.45.15-.07,0-.08-.02-.05-.07M38.28,30.88c.21-.19.38-.38.5-.59.09-.16.16-.31.2-.44.04-.14.06-.25.05-.35,0-.1-.03-.18-.06-.25-.03-.07-.08-.13-.13-.18-.15-.15-.39-.24-.71-.28-.32-.04-.67-.03-1.04.04-.37.06-.76.17-1.16.31-.4.14-.75.31-1.07.49-.41.25-.7.51-.87.79-.17.28-.22.55-.14.81.01.03.03.05.06.07.03.01.05.02.08,0,.03,0,.05-.03.07-.05.01-.03.02-.05,0-.08-.02-.08-.03-.15-.03-.22,0-.07.01-.14.04-.2.03-.07.06-.13.09-.19.03-.06.08-.12.13-.18.05-.06.11-.12.16-.17.05-.05.11-.1.18-.15.06-.05.12-.09.18-.13.05-.04.11-.07.16-.11.31-.19.66-.35,1.05-.49.39-.14.75-.23,1.09-.29.34-.05.66-.07.94-.04.28.03.49.1.61.23.2.2.17.52-.09.96-.11.18-.26.36-.45.53-.19.17-.41.32-.64.45-.23.13-.46.24-.69.33-.23.09-.46.17-.67.23-.03,0-.05,0-.07-.02-.02-.02-.03-.05-.03-.09,0-.04.01-.07.02-.11.03-.12.04-.21.06-.27.01-.06.03-.15.05-.27.02-.11.04-.2.06-.27.02-.07.04-.15.07-.24.03-.09.05-.17.07-.22.02-.06.05-.11.08-.17.03-.06.06-.1.09-.13.03-.03.06-.05.09-.06.03,0,.05-.03.07-.05.02-.03.02-.05.01-.08,0-.03-.02-.05-.05-.07s-.05-.02-.08-.01c-.04,0-.08.02-.11.05-.04.02-.07.05-.1.09-.03.04-.06.08-.09.12-.03.04-.05.09-.08.16-.03.07-.05.13-.07.18-.02.05-.04.12-.07.21-.02.09-.04.17-.06.22-.01.06-.03.14-.06.25-.02.11-.04.19-.05.26-.01.06-.03.15-.05.27-.03.14-.04.22-.05.23,0,.02,0,.03,0,.04,0,0,0,.01,0,.02,0,0,0,.02-.01.02,0,0-.01.01-.02.02,0,0-.02.01-.03.02-.01,0-.03,0-.05.01-.02,0-.04,0-.06,0-.12.01-.23,0-.34-.03,0-.03.04-.08.11-.15.02-.02.03-.05.03-.08s-.01-.06-.03-.08c-.02-.02-.05-.03-.08-.03s-.06,0-.08.03c-.15.15-.2.28-.16.38.04.1.14.16.3.18.03,0,.06,0,.1,0h.11s.07.01.09.04c.02.03.03.06.02.1-.13.56-.27.86-.41.9-.03,0-.05.02-.06.05-1.1.82-2.69-.66-2.99-.96,0-.01-.01-.03-.02-.04-.02-.02-.04-.04-.07-.04-.03,0-.06,0-.08.03-.02.02-.05.04-.1.08-.05.03-.13.09-.26.17-.13.08-.26.16-.4.23-.14.07-.3.14-.49.21-.19.07-.38.12-.56.16-.18.03-.38.04-.59.03-.21-.01-.41-.06-.59-.13-.21-.08-.3-.19-.28-.34,0-.01,0-.03.01-.03.01,0,.02-.01.04,0,.28.02.55-.05.78-.2.17-.11.24-.23.23-.37,0-.08-.04-.14-.09-.2-.05-.05-.12-.08-.2-.08-.11,0-.24.03-.38.1-.14.07-.27.17-.39.3-.04.04-.07.09-.1.13-.01,0-.03.01-.04.02-.03.02-.06.05-.1.08-.04.03-.12.09-.25.18-.12.08-.24.16-.36.22-.12.06-.25.11-.4.15-.15.04-.28.05-.4.04-.1-.01-.18-.05-.26-.11-.08-.06-.14-.13-.19-.21-.04-.07-.09-.13-.16-.18-.07-.04-.14-.07-.23-.08-.21-.02-.43.1-.68.36-.01.01-.03.02-.05,0-.02,0-.03-.02-.02-.04,0-.03.03-.14.06-.32.03-.03.05-.05.07-.07.02-.02.03-.05.03-.08,0,0,0-.01,0-.02.04-.06.09-.12.13-.19.06-.09.14-.21.24-.36.09-.15.18-.29.25-.42.08-.13.15-.28.22-.43.07-.15.12-.3.16-.42.04-.13.05-.25.05-.36,0-.11-.03-.2-.09-.27-.03-.04-.07-.07-.11-.08-.04-.02-.09-.02-.14,0-.03,0-.05.02-.07.03-.02.01-.06.05-.11.11-.05.06-.1.14-.15.24-.05.1-.11.24-.18.44-.07.2-.15.43-.22.7-.1.34-.18.69-.26,1.05l-.03.04s0,0,0,0c0,0-.01.01-.02.02-.05.05-.11.1-.17.15-.06.05-.13.1-.22.17-.09.06-.17.12-.26.17-.08.05-.18.1-.28.14-.1.04-.2.08-.29.11s-.18.04-.28.04-.18-.02-.27-.05c-.28-.11-.46-.41-.53-.91.14-.35.25-.63.32-.84,0-.02.02-.03.03-.04,0,0,.03,0,.05,0,.54-.04,1.03-.06,1.47-.06.03,0,.06-.01.08-.03.02-.02.03-.05.03-.08s-.01-.06-.03-.08c-.02-.02-.05-.03-.08-.03-.28,0-.75.02-1.39.06,0,0-.02,0-.02,0,0,0-.01-.01-.01-.03,0-.01,0-.03,0-.05.11-.31.19-.6.24-.85.05-.25.05-.42.01-.5-.06-.13-.15-.19-.27-.17-.07.01-.14.07-.21.17-.07.1-.13.22-.18.38-.05.15-.1.31-.14.48-.04.17-.07.34-.1.51-.01.07-.04.11-.09.12-.12,0-.25.02-.38.03-.13,0-.24.02-.34.03-.09,0-.18.01-.26.02-.08,0-.14.01-.18.01s-.06,0-.07,0c-.03,0-.06.01-.08.03-.02.02-.03.05-.03.08s.01.06.03.08c.02.02.05.03.08.03h0s.02,0,.06,0c.04,0,.1,0,.17-.01.07,0,.16,0,.25-.02s.2-.02.32-.03c.12,0,.24-.02.36-.03.02,0,.04,0,.06.02.02.01.03.03.03.05-.01.24-.01.46,0,.66-.17.96-1.08,1.1-1.13,1.1l.02.2s.84-.12,1.18-.87c.01.05.03.11.05.16.12.33.31.54.56.64.11.04.23.06.34.06.16,0,.33-.03.51-.1.18-.07.34-.15.48-.23.14-.08.27-.18.41-.29.03-.02.05-.04.08-.06-.04.24-.07.44-.09.61,0,.06.02.09.07.11.05.02.1,0,.13-.04.1-.15.2-.27.29-.37.09-.1.17-.17.24-.22.07-.04.13-.07.17-.09.04-.02.09-.02.12-.02.1,0,.17.06.22.14.06.11.15.21.25.28.11.07.23.12.35.15.14.02.29,0,.46-.03.17-.04.31-.1.44-.16.13-.06.26-.14.39-.23.06-.04.11-.08.15-.11,0,.03,0,.07.02.12.01.05.03.1.06.14.03.04.07.09.13.13.06.05.13.09.21.12.26.11.54.16.83.16.23,0,.46-.03.71-.1.25-.06.46-.14.63-.21.18-.08.35-.17.53-.28.18-.11.3-.18.36-.23.03-.02.06-.04.09-.06.16.16.55.52,1.04.81.47.28.91.42,1.3.42.32,0,.61-.09.86-.28,0,0,0,0,.01,0,.14-.04.26-.16.35-.36.09-.2.18-.48.26-.84.02-.08.07-.13.15-.15.24-.06.48-.13.73-.23.25-.1.51-.22.76-.35.25-.14.49-.3.7-.49"/>
  <path class="cls-1" d="M62.04,31.75s-.03-.02-.03-.04c-.04-.22-.03-.49.02-.82.06-.33.14-.61.23-.85.1-.24.18-.38.25-.41,0,0,.02,0,.03,0,.02,0,.05.01.07.04.05.05.05.23-.01.52-.06.29-.14.59-.25.9-.11.31-.2.52-.27.64-.01.02-.03.02-.04.01M57.88,34.83c.05-.25.12-.5.21-.74-.05.25-.12.5-.21.74M49.88,32.23c.08-.11.18-.2.3-.27.12-.07.22-.1.31-.1.03,0,.04,0,.05.02.01,0,.02.03.02.06,0,.05-.04.1-.12.16-.02.01-.04.03-.07.04-.18.09-.33.14-.45.15-.07,0-.08-.02-.05-.07M47.16,31.75s-.03-.02-.03-.04c-.04-.22-.03-.49.02-.82.06-.33.14-.61.23-.85.1-.24.18-.38.25-.41,0,0,.02,0,.03,0,.02,0,.05.01.07.04.05.05.05.23-.01.52-.06.29-.14.59-.25.9-.11.31-.2.52-.27.64-.01.02-.03.02-.04.01M43,34.83c.05-.25.12-.5.21-.74-.05.25-.12.5-.21.74M41.36,32.5s-.04-.05-.04-.08c0-.03,0-.06.02-.08,0-.01.02-.03.03-.05,0,.07,0,.14,0,.21M37.55,32.23c.08-.11.18-.2.3-.27.12-.07.22-.1.31-.1.03,0,.04,0,.05.02.01,0,.02.03.02.06,0,.05-.04.1-.12.16-.02.01-.04.03-.07.04-.18.09-.33.14-.45.15-.07,0-.08-.02-.05-.07M71.49,32.23c.08-.11.18-.2.3-.27.12-.07.22-.1.31-.1.03,0,.04,0,.05.02.01,0,.02.03.02.06,0,.05-.04.1-.12.16-.02.01-.04.03-.07.04-.18.09-.33.14-.45.15-.07,0-.08-.02-.05-.07M74.77,32.14s-.04-.04-.07-.04c-.03,0-.06,0-.08.03-.02.02-.05.04-.1.08-.05.03-.13.09-.26.17-.13.08-.26.16-.4.23-.14.07-.3.14-.49.21-.19.07-.38.12-.56.16-.18.03-.38.04-.59.03s-.41-.06-.59-.13c-.21-.08-.3-.19-.28-.34,0-.01,0-.03.01-.03.01,0,.02-.01.04,0,.28.02.55-.05.78-.2.17-.11.24-.23.23-.37,0-.08-.04-.14-.09-.2-.05-.05-.12-.08-.2-.08-.11,0-.24.03-.38.1-.14.07-.27.17-.39.3-.03.03-.06.07-.08.1,0,0-.01,0-.02.01,0,0-.02.02-.05.04s-.07.05-.13.1c-.06.05-.13.09-.21.14-.07.04-.17.1-.28.15-.11.06-.23.11-.34.16-.12.05-.25.09-.4.13s-.3.07-.46.09c-.15.02-.32.03-.51.03-.18,0-.37-.02-.55-.05-.29-.05-.44-.16-.44-.32,0-.14.09-.3.26-.48.18-.18.34-.28.5-.31.1-.03.19-.02.28.04.06.06.1.14.09.23,0,.03.01.06.03.08.02.02.05.03.08.03s.06-.01.08-.03c.02-.02.03-.05.04-.08,0-.16-.06-.3-.17-.4-.14-.11-.29-.14-.46-.09-.12.03-.26.09-.4.19-.14.1-.26.22-.36.36-.01,0-.02,0-.03.02-.02.02-.04.04-.08.07-.04.03-.1.08-.2.15-.1.07-.19.14-.29.2-.1.06-.22.12-.35.18-.14.06-.26.1-.39.13-.12.03-.25.04-.38.02-.13-.01-.25-.06-.36-.13-.06-.04-.11-.09-.16-.15-.05-.06-.08-.12-.11-.18-.03-.06-.05-.12-.07-.18-.02-.06-.03-.11-.04-.13,0-.02,0-.04-.01-.06,0-.05-.04-.08-.09-.09-.06,0-.1.01-.12.06-.11.24-.23.46-.37.67-.14.21-.23.29-.28.26,0,0-.02-.01-.04-.04-.05-.15-.04-.29.04-.42.08-.17.19-.31.33-.42.14-.11.3-.19.48-.23.04-.01.07-.04.08-.08.01-.04,0-.08-.03-.11-.03-.03-.07-.04-.11-.03-.21.05-.4.14-.57.28-.06.05-.11.1-.16.16,0,0-.01,0-.02.01-.01.01-.03.03-.04.04-.02.02-.06.05-.11.1-.06.05-.11.1-.17.14-.06.04-.13.1-.22.16-.09.06-.17.12-.25.16-.08.04-.17.09-.27.14-.1.05-.2.09-.29.1-.09.02-.18.03-.29.05-.1.01-.19,0-.27-.03-.25-.08-.42-.29-.53-.65-.03-.1-.02-.19.03-.28.06-.12.12-.24.18-.37.06-.13.13-.28.2-.46.08-.18.14-.36.2-.52s.1-.33.13-.49c.04-.16.05-.3.05-.43,0-.12-.04-.22-.1-.28-.04-.05-.09-.08-.16-.1-.06-.02-.13-.01-.19.01-.14.06-.26.22-.37.48-.11.26-.19.56-.24.9-.05.34-.07.66-.05.96,0,.11.02.22.04.33,0,0-.01,0-.02.01-.14.13-.3.24-.49.33-.19.09-.39.16-.6.21-.21.05-.4.09-.57.11-.17.02-.36.04-.57.06-.01,0-.02,0-.03-.02,0-.01,0-.02,0-.04.05-.07.09-.15.11-.24.02-.11,0-.22-.06-.31-.06-.1-.15-.16-.26-.2-.2-.08-.41.04-.65.35,0,.01-.02.02-.03.01,0,0-.01-.01-.01-.03.02-.13.04-.25.05-.36,0-.04,0-.08-.04-.11-.03-.03-.07-.03-.11-.02-.01,0-.02.01-.03.02h0s0,0,0,0c0,0,0,0,0,.01-.29.39-.83.26-1.19.17-.09-.02-.17-.04-.24-.05-.02-.01-.04-.02-.07-.02-.03,0-.06.01-.07.03-.03.01-.05.03-.07.06-.4.36-.86.6-1.38.72-.03,0-.05,0-.06-.02-.02-.02-.02-.04,0-.06.04-.07.06-.15.05-.23,0-.08-.03-.16-.08-.23-.06-.08-.14-.14-.22-.19-.08-.06-.14-.1-.19-.15-.04-.04-.07-.08-.07-.13,0-.06.02-.11.06-.15l.23-.22s.03-.04.03-.07,0-.06-.03-.08c-.02-.02-.04-.04-.07-.04s-.06,0-.08.02c-.09.07-.18.14-.25.23l-.65.61s-.05.07-.04.11c.01.04.04.07.08.08.04.01.08,0,.11-.03l.32-.3s.03-.02.05-.02c.02,0,.04.01.05.03.08.11.18.2.3.27.06.04.11.08.16.13.05.05.07.11.05.17s-.05.12-.11.15c-.13.08-.28.1-.43.07-.15-.03-.27-.11-.36-.23-.02-.03-.04-.04-.07-.05-.03,0-.06,0-.08.01,0,0,0,0,0,0-.24.11-.45.13-.62.06-.2-.08-.32-.28-.36-.37,0,0,0,0,0,0,0-.02,0-.05-.02-.07.03-.04.06-.08.09-.13.05-.08.08-.17.1-.26.02-.09.03-.18.02-.28,0-.09-.03-.18-.08-.26-.06-.1-.13-.18-.22-.22-.09-.04-.18-.04-.28.01-.06.03-.11.09-.13.17-.02.08-.02.15.02.23.04.07.09.12.16.14.07.02.13,0,.19-.03.02-.01.04-.02.07-.03.02,0,.04,0,.06,0,.03.04.04.09.04.15,0,.06-.01.12-.03.18-.02.06-.04.12-.07.17-.03.05-.06.09-.09.12,0,0-.02,0-.03.02-.02.02-.05.04-.1.08-.05.03-.13.09-.26.17-.13.08-.26.16-.4.23-.14.07-.3.14-.49.21-.19.07-.38.12-.56.16-.18.03-.38.04-.59.03-.21-.01-.41-.06-.59-.13-.21-.08-.3-.19-.28-.34,0-.01,0-.03.01-.03.01,0,.02-.01.04,0,.28.02.55-.05.78-.2.17-.11.24-.23.23-.37,0-.08-.04-.14-.09-.2-.05-.05-.12-.08-.2-.08-.11,0-.24.03-.38.1-.14.07-.27.17-.39.3-.02.03-.04.05-.06.08,0,0-.02,0-.03.02-.01.01-.03.03-.04.04-.02.02-.06.05-.11.1-.06.05-.11.1-.17.14-.06.04-.13.1-.22.16-.09.06-.17.12-.25.16-.08.04-.17.09-.27.14-.1.05-.2.09-.29.1-.09.02-.18.03-.29.05-.1.01-.19,0-.27-.03-.25-.08-.42-.29-.53-.65-.03-.1-.02-.19.03-.28.06-.12.12-.24.18-.37.06-.13.13-.28.2-.46.08-.18.14-.36.2-.52.05-.17.1-.33.13-.49.04-.16.05-.3.05-.43,0-.12-.04-.22-.1-.28-.04-.05-.09-.08-.16-.1-.06-.02-.13-.01-.19.01-.14.06-.26.22-.37.48-.11.26-.19.56-.24.9-.05.34-.07.66-.05.96,0,.11.02.22.04.33,0,0-.01,0-.02.01-.14.13-.3.24-.49.33-.19.09-.39.16-.6.21-.21.05-.4.09-.57.11-.17.02-.36.04-.57.06-.01,0-.02,0-.03-.02,0-.01,0-.02,0-.04.05-.07.09-.15.11-.24.02-.11,0-.22-.06-.31-.06-.1-.15-.16-.26-.2-.2-.08-.41.04-.65.35,0,.01-.02.02-.03.01,0,0-.01-.01-.01-.03.02-.13.04-.25.05-.36,0-.04,0-.08-.04-.11-.03-.03-.07-.03-.11-.02-.04.02-.06.05-.07.09,0,.02,0,.04,0,.06-.25.25-.54.43-.88.54-.34.11-.69.14-1.04.08-.03,0-.05-.02-.06-.04-.02-.02-.02-.05-.02-.07.02-.1.02-.2,0-.29-.02-.09-.05-.15-.11-.19-.11-.06-.22,0-.33.18-.05.08-.07.16-.05.26.02.09.07.16.15.22.03.03.02.07-.03.13-.04.05-.09.08-.15.08-.06,0-.12,0-.17-.05-.06-.03-.1-.07-.13-.13-.03-.06-.03-.12,0-.18.03-.1.08-.2.16-.28.08-.09.14-.13.19-.13.03,0,.06-.01.08-.03.02-.02.03-.05.03-.08s-.01-.06-.03-.08c-.02-.02-.05-.03-.08-.03h0c-.1,0-.22.06-.33.18,0,0,0,0,0,0,0,0-.02,0-.03,0-.03,0-.06,0-.08.03-.02.02-.05.04-.1.08-.05.03-.13.09-.26.17-.13.08-.26.16-.4.23-.14.07-.3.14-.49.21-.19.07-.38.12-.56.16-.18.03-.38.04-.59.03-.21-.01-.41-.06-.59-.13-.21-.08-.3-.19-.28-.34,0-.01,0-.03.01-.03.01,0,.02-.01.04,0,.28.02.55-.05.78-.2.17-.11.24-.23.23-.37,0-.08-.04-.14-.09-.2-.05-.05-.12-.08-.2-.08-.11,0-.24.03-.38.1-.14.07-.27.17-.39.3-.12.13-.19.26-.22.39,0,.04-.01.07-.01.11,0,.04,0,.08.02.13.01.05.03.1.06.14.03.04.07.09.13.13.06.05.13.09.21.12.26.11.54.16.83.16.23,0,.46-.03.71-.1.25-.06.46-.14.63-.21.18-.08.35-.17.53-.28.11-.07.2-.12.27-.16,0,0,0,.02,0,.03-.04.11-.03.22.01.33s.12.19.23.24c.08.04.16.07.26.07.09,0,.18-.03.25-.08.07-.05.13-.12.17-.2.01-.02.03-.03.05-.02.14.04.3.06.48.07s.37-.02.57-.06c.2-.04.4-.12.61-.23.12-.07.24-.14.35-.23-.03.21-.07.42-.1.62-.13.27-.26.56-.37.86-.11.3-.2.58-.25.82-.05.24-.05.4.02.47.03.03.07.05.12.05.02,0,.04,0,.05,0,.2-.07.42-.78.65-2.13,0,0,0-.02,0-.02.12-.26.28-.5.48-.71.1-.09.17-.12.23-.1.15.06.21.15.19.27-.03.1-.08.18-.16.25-.08.07-.17.11-.27.12-.03,0-.05,0-.07,0-.03,0-.06.02-.08.04-.02.02-.03.05-.03.08,0,.03.01.06.04.08.02.02.05.03.08.03.03,0,.06,0,.08,0,.05,0,.15,0,.28-.02.14,0,.26-.02.34-.02.08,0,.21-.02.37-.03.16-.02.3-.04.41-.06.11-.02.24-.05.4-.09.16-.04.29-.09.41-.14.12-.05.24-.11.37-.19.09-.06.18-.12.26-.19.06.21.14.39.24.54.12.17.27.28.46.33.1.03.2.04.3.04.16,0,.33-.03.52-.1.18-.07.34-.14.48-.22.14-.08.28-.18.42-.29.04-.03.08-.06.11-.09,0,.03,0,.07.02.12.01.05.03.1.06.14.03.04.07.09.13.13.06.05.13.09.21.12.26.11.54.16.83.16.22,0,.46-.03.71-.1.25-.06.46-.14.63-.21.18-.08.35-.17.53-.28.18-.11.3-.18.36-.23.02-.01.03-.03.05-.04.07.13.21.31.43.41.09.04.2.06.3.06.13,0,.27-.03.41-.09.06.09.14.17.24.23.12.07.25.12.39.13.07,0,.14.01.21.01.34,0,.71-.09,1.1-.27.37-.17.68-.38.92-.61.06,0,.14.03.21.05.18.04.41.1.65.1.19,0,.37-.04.53-.14-.04.25-.08.5-.12.75-.13.27-.26.56-.37.86-.11.3-.2.58-.25.82-.05.24-.05.4.02.47.03.03.07.05.12.05.02,0,.04,0,.05,0,.2-.07.42-.78.65-2.13,0,0,0-.02,0-.02.12-.26.28-.5.48-.71.1-.09.17-.12.23-.1.15.06.21.15.19.27-.03.1-.08.18-.16.25-.08.07-.17.11-.27.12-.03,0-.05,0-.07,0-.03,0-.06.02-.08.04-.02.02-.03.05-.03.08,0,.03.01.06.04.08.02.02.05.03.08.03.03,0,.06,0,.08,0,.05,0,.15,0,.28-.02.14,0,.26-.02.34-.02.08,0,.21-.02.37-.03s.3-.04.41-.06c.11-.02.24-.05.4-.09.16-.04.29-.09.41-.14.12-.05.24-.11.37-.19.09-.06.18-.12.26-.19.06.21.14.39.24.54.12.17.27.28.46.33.1.03.2.04.3.04.16,0,.33-.03.52-.1.18-.07.34-.14.48-.22.13-.08.26-.17.39-.27-.03.14-.02.27.04.41.02.05.05.09.09.12.04.03.09.05.14.05h0c.1,0,.21-.06.32-.16.12-.1.22-.23.32-.38.02-.03.05-.05.09-.05.04,0,.07.02.09.05.07.12.16.22.28.3.13.08.27.13.42.15.15.02.3.02.43,0,.14-.03.28-.07.43-.13.15-.06.28-.13.39-.19.11-.06.22-.14.32-.21.01,0,.02-.02.03-.02,0,.01,0,.03,0,.04,0,.05,0,.09.02.14.02.05.04.1.08.15.04.05.1.1.19.15.09.04.19.08.32.1.22.04.43.06.65.06.45,0,.89-.08,1.31-.24.31-.11.6-.26.87-.45,0,0,0,0,0,.01,0,.04,0,.08.02.13.01.05.03.1.06.14.03.04.07.09.13.13.06.05.13.09.21.12.26.11.54.16.83.16.22,0,.46-.03.71-.1.25-.06.46-.14.63-.21.18-.08.35-.17.53-.28.18-.11.3-.18.36-.23.06-.04.11-.08.16-.12.03-.02.04-.04.04-.08,0-.03,0-.06-.03-.08"/>
  <path class="cls-1" d="M84.68,13.81l-.04-.11s-.01-.05-.02-.07h0s-.01.05-.02.07l-.04.11h.12ZM84.56,13.85l-.04.12h-.05l.13-.39h.06l.13.39h-.05l-.04-.12h-.14Z"/>
  <path class="cls-1" d="M84.63,13.63h0s-.01.05-.02.07l-.04.11h.12l-.04-.11s-.01-.05-.02-.07"/>
  <path class="cls-1" d="M1.63,13.23h0s-.02.06-.03.09l-.05.14h.15l-.05-.14s-.02-.06-.03-.09"/>
  <path class="cls-1" d="M1.7,13.47l-.05-.14s-.02-.06-.03-.09h0s-.02.06-.03.09l-.05.14h.15ZM1.54,13.52l-.05.16h-.07l.17-.5h.08l.17.5h-.07l-.05-.16h-.18Z"/>
  <path class="cls-1" d="M84.73,13.97l-.04-.12h-.14l-.04.12h-.05l.13-.39h.06l.13.39h-.05ZM68.36,17.76v-.15c0-.93.06-1.96.51-2.75.03-.02.06-.04.09-.06.02.13.03.28.04.44.07,1.49-.11,3.18-.65,4.62,0-.7,0-1.41,0-2.1M67.31,17.6v.15c-.01,1.28-.02,2.6.04,3.92-.51.62-1.15,1.1-1.95,1.35-1.37.43-2.58.43-3.24,0-.38-.25-.6-.66-.66-1.24-.06-.61.1-1.25.25-1.74.48-1.56,1.21-2.8,2.18-3.67.85-.77,2.48-1.38,3.77-1.48-.33.87-.38,1.83-.38,2.7M38.63,21.92c-.92-.55-1.67-1.26-2.25-2.01-.48-.62-2.78-3.83-.89-5.7,0,0,.01-.01.02-.02.09-.02.18-.05.26-.07.11-.02.2-.08.27-.16.09-.02.18-.04.24-.05.48-.09.85-.08,1.22.04l.1.03c.23.07.45.14.62.25.18.11.34.3.49.49.33.41.6.88.79,1.41.24.65.35,1.36.34,2.06-.03,1.25-.45,2.54-1.22,3.74M33,25.98c-.62.16-2.72.57-3.85-.67-.85-.94-.75-2.44-.61-3.26.5-2.98,2.69-5.83,5.35-7.22-.6,1.81.35,4.02,1.66,5.72.7.91,1.53,1.66,2.46,2.24-1.27,1.55-3.06,2.7-5,3.19M1.77,13.68l-.05-.16h-.18l-.05.16h-.07l.17-.5h.08l.17.5h-.07ZM100.03,12.04c-.28-.08-.57.08-.65.35-1.08,3.65-6.22,2.72-9.18,1.84-1.6-.47-2.93-.74-4.19-.85-4.11-.36-7.39,1.43-9.48,5.17-.79,1.41-1.26,2.89-1.71,4.32-.16.52-.33,1.06-.52,1.59-.37,1.06-1.23,2.3-2.35,2.68-.65.22-1.31.12-1.96-.31-1.37-.9-1.49-3.12-1.58-4.74v-.06c1.31-1.83,1.74-4.47,1.63-6.84-.07-1.51-.58-1.69-.75-1.75-.19-.07-.56-.11-.96.35-.01.01-.02.03-.04.04-2.17-.16-4.89,1.16-6.19,2.59-.9.99-1.46,2.17-2,3.31-.21.45-.44.92-.67,1.36-1.29,2.4-2.7,4.04-3.85,4.51-.44.18-.89.28-1.33.3-.91.04-1.7-.32-2.17-.98-.69-.96-1.01-2.27-1.21-3.31-.13-.65-.23-1.34-.3-2.08.15-.57.25-1.03.29-1.8.04-.66.12-2.87-.43-3.34-.15-.13-.35-.18-.54-.14-.52.11-.52.7-.52,1.02v.03c-.03.79-.01,1.23,0,1.84,0,.18.01.37.02.6.02.6.05,1.17.1,1.71-.02.07-.04.14-.06.21l-.08.29c-.16.58-.32.98-.72,1.33-.54.48-1,.79-1.47.98-3.03,1.24-5.62,1.05-7.62.17.84-1.34,1.3-2.78,1.34-4.2.02-.83-.12-1.68-.4-2.45-.23-.64-.56-1.21-.97-1.71-.21-.26-.45-.53-.77-.72-.28-.17-.58-.27-.85-.35l-.09-.03c-.53-.17-1.09-.19-1.74-.07-.25.05-.5.11-.73.2-3.71.02-7.31,3.75-10.5,7.05-2.58,2.66-5.01,5.18-6.9,5.2-.02,0-.04,0-.06,0-3.18,0-4.83-3.05-6.29-5.74-.19-.35-.37-.69-.55-1.01-1.86-3.32-4.31-6.3-9.58-5.65-.29.04-.49.3-.46.59.04.29.3.49.59.46,4.4-.55,6.53,1.55,8.53,5.12.18.32.36.65.55,1,1.53,2.83,3.42,6.35,7.28,6.3,2.33-.03,4.79-2.57,7.64-5.52,1.42-1.47,2.92-3.02,4.45-4.26-1.31,1.53-2.25,3.38-2.57,5.28-.2,1.22-.22,2.94.87,4.14,1.03,1.14,2.86,1.5,4.89.99,2.22-.57,4.26-1.9,5.69-3.7.78.36,1.61.61,2.5.74,1.96.29,4.15,0,6.15-.82.58-.24,1.15-.61,1.77-1.17.17-.15.31-.31.43-.48.02.08.03.17.05.25.23,1.14.59,2.59,1.39,3.71.68.96,1.8,1.47,3.07,1.42.56-.02,1.12-.15,1.68-.37,1.79-.72,3.37-3.11,4.38-4.98.02-.04.04-.08.06-.12,0,.14,0,.28.02.42.09.9.47,1.58,1.13,2.01,1.33.87,3.33.37,4.13.12.66-.21,1.22-.53,1.71-.93.13,1.68.48,3.61,1.99,4.61.6.4,1.24.6,1.87.6.34,0,.67-.06,1.01-.17,1.28-.43,2.46-1.74,3-3.33.19-.54.36-1.09.52-1.61.45-1.44.88-2.81,1.62-4.12,1.88-3.35,4.8-4.95,8.47-4.63,1.19.1,2.45.36,3.98.82,1.53.45,3.77.96,5.8.8,2.47-.2,4.09-1.35,4.68-3.35.08-.28-.08-.57-.35-.65"/>
</svg>